<svg xmlns="http://www.w3.org/2000/svg" x="0px" y="0px" width="50" height="50" viewBox="0,0,256,256"
style="fill:#000000;">
<g fill-opacity="0" fill="#000000" fill-rule="nonzero" stroke="none" stroke-width="1" stroke-linecap="butt" stroke-linejoin="miter" stroke-miterlimit="10" stroke-dasharray="" stroke-dashoffset="0" font-family="none" font-weight="none" font-size="none" text-anchor="none" style="mix-blend-mode: normal"><path d="M0,256v-256h256v256z" id="bgRectangle"></path></g><g fill="#ffffff" fill-rule="nonzero" stroke="none" stroke-width="1" stroke-linecap="butt" stroke-linejoin="miter" stroke-miterlimit="10" stroke-dasharray="" stroke-dashoffset="0" font-family="none" font-weight="none" font-size="none" text-anchor="none" style="mix-blend-mode: normal"><g transform="scale(5.12,5.12)"><path d="M25,2c-5.60547,0 -10.67187,0.63281 -14.42187,1.70313c-1.875,0.53516 -3.41797,1.17188 -4.57031,1.96094c-1.15625,0.78516 -2.00781,1.80859 -2.00781,3.07813v0.10156l0.13281,0.64844l2.87891,18.66016c0.05859,1.14844 0.76563,2.13281 1.74609,2.92188c0.22656,0.18359 0.47656,0.35547 0.74219,0.52734l1.56641,11.15625l-0.00781,-0.14062c0,1.01563 0.625,1.85938 1.42969,2.49219c0.80859,0.62891 1.86719,1.12891 3.12109,1.55078c2.36719,0.79297 5.48047,1.25 8.8125,1.30078v0.03906h0.57813v-0.03906c3.33594,-0.05078 6.44531,-0.50781 8.8125,-1.30078c1.25781,-0.42187 2.3125,-0.92187 3.12109,-1.55078c0.76953,-0.60156 1.36328,-1.39844 1.42188,-2.35156l1.51953,-10.78906c0.5,-0.27734 0.96875,-0.57422 1.37109,-0.89453c0.97656,-0.78906 1.68359,-1.77344 1.74219,-2.92187v-0.00781l2.87891,-18.65234l0.13281,-0.64844v-0.10156c0,-1.26953 -0.85156,-2.29297 -2.00391,-3.07813c-1.15625,-0.78906 -2.69922,-1.42578 -4.57422,-1.96094c-3.75,-1.07031 -8.81641,-1.70312 -14.42187,-1.70312zM25,4c5.45313,0 10.38672,0.63281 13.875,1.625c1.74219,0.5 3.12109,1.09766 3.99219,1.6875c0.85547,0.58594 1.10547,1.06641 1.11719,1.40625l-0.08594,0.42188l-2.89844,18.78125v0.07813c0,0.39063 -0.25781,0.91016 -1.01172,1.51563c-0.75,0.60547 -1.9375,1.22266 -3.42578,1.74609c-2.97266,1.04688 -7.13672,1.73828 -11.5625,1.73828c-4.42578,0 -8.58984,-0.69141 -11.5625,-1.73828c-1.48828,-0.52344 -2.67578,-1.14062 -3.42578,-1.74609c-0.75391,-0.60547 -1.01172,-1.125 -1.01172,-1.51562v-0.07812l-2.89844,-18.78125l-0.08594,-0.42187c0.01172,-0.33984 0.26172,-0.82031 1.11719,-1.40625c0.87109,-0.58984 2.25,-1.1875 3.99219,-1.6875c3.48828,-0.99219 8.42188,-1.625 13.875,-1.625zM25,5c-3.92187,0 -7.48047,0.37891 -10.13281,1.03516c-1.32812,0.32813 -2.42578,0.71875 -3.27344,1.22266c-0.84766,0.5 -1.59375,1.21875 -1.59375,2.24219c0,1.02344 0.74609,1.74219 1.59375,2.24609c0.84766,0.5 1.94531,0.89063 3.27344,1.21875c2.65234,0.65625 6.21094,1.03516 10.13281,1.03516c3.92188,0 7.48047,-0.37891 10.13281,-1.03516c1.32813,-0.32812 2.42578,-0.71875 3.27344,-1.21875c0.84766,-0.50391 1.59375,-1.22266 1.59375,-2.24609c0,-1.02344 -0.74609,-1.74219 -1.59375,-2.24219c-0.84766,-0.50391 -1.94531,-0.89453 -3.27344,-1.22266c-2.65234,-0.65625 -6.21094,-1.03516 -10.13281,-1.03516zM25,7c3.78906,0 7.23438,0.37891 9.65234,0.97656c1.21094,0.30078 2.16406,0.66016 2.73438,1c0.57031,0.33984 0.61328,0.55469 0.61328,0.52344c0,-0.03125 -0.04297,0.18359 -0.61328,0.52344c-0.57031,0.33984 -1.52344,0.69922 -2.73437,1c-2.41797,0.59766 -5.86328,0.97656 -9.65234,0.97656c-3.78906,0 -7.23437,-0.37891 -9.65234,-0.97656c-1.21094,-0.30078 -2.16406,-0.66016 -2.73437,-1c-0.57031,-0.33984 -0.61328,-0.55469 -0.61328,-0.52344c0,0.03125 0.04297,-0.18359 0.61328,-0.52344c0.57031,-0.33984 1.52344,-0.69922 2.73438,-1c2.41797,-0.59766 5.86328,-0.97656 9.65234,-0.97656zM25,18c-3.35937,0 -6,2.64063 -6,6c0,3.35938 2.64063,6 6,6c3.35938,0 6,-2.64062 6,-6c0,-3.35937 -2.64062,-6 -6,-6zM25,21c1.65625,0 3,1.34375 3,3c0,1.65625 -1.34375,3 -3,3c-1.65625,0 -3,-1.34375 -3,-3c0,-1.65625 1.34375,-3 3,-3zM11.67578,32.72656c0.35156,0.14453 0.71484,0.28906 1.09375,0.42188c3.26172,1.14844 7.59766,1.85156 12.23047,1.85156c4.63281,0 8.96875,-0.70312 12.23047,-1.85156c0.16797,-0.05859 0.32031,-0.125 0.48438,-0.1875l-1.35156,9.58594v0.07031c0,0.1875 -0.125,0.49609 -0.66016,0.91406c-0.53516,0.41797 -1.41406,0.85938 -2.52734,1.23438c-2.15625,0.72266 -5.20312,1.1875 -8.46484,1.21484c-3.26172,-0.02734 -6.30859,-0.49219 -8.46484,-1.21484c-1.11328,-0.375 -1.99219,-0.81641 -2.52734,-1.23437c-0.53125,-0.41797 -0.66016,-0.72656 -0.66016,-0.91406v-0.07031z"></path></g></g>
</svg>